# xmcd CD database file
#
# Track frame offsets:
#	150
#	15488
#	38140
#	53828
#	67372
#	88016
#	99988
#	111543
#	126742
#	145566
#	162017
#	177904
#	196418
#	210142
#
# Disc length: 2830 seconds
#
# Revision: 0
# Processed by: cddbd v1.5.2PL0 Copyright (c) Steve Scherf et al.
# Submitted via: CDex 1.70beta2
#
DISCID=c20b0c0e
DTITLE=Eric Clapton - Me and Mr. Johnson
DYEAR=2004
DGENRE=Blues
TTITLE0=when you got a good friend
TTITLE1=little queen of spades
TTITLE2=they're red hot
TTITLE3=me and the devil blues
TTITLE4=traveling riverside blues
TTITLE5=last fair deal gone down
TTITLE6=stop breakin' down blues
TTITLE7=milkcow's calf blues
TTITLE8=kind hearted woman blues
TTITLE9=come on in my kitchen
TTITLE10=if i had possesion over judgement day
TTITLE11=love in vain
TTITLE12=32-20 blues
TTITLE13=hell hound on my trail
EXTD=YEAR: 2004
EXTT0=
EXTT1=
EXTT2=
EXTT3=
EXTT4=
EXTT5=
EXTT6=
EXTT7=
EXTT8=
EXTT9=
EXTT10=
EXTT11=
EXTT12=
EXTT13=
PLAYORDER=
